<?xml version="1.0" encoding="UTF-8" standalone="no"?>
<svg
   xmlns:dc="http://purl.org/dc/elements/1.1/"
   xmlns:cc="http://creativecommons.org/ns#"
   xmlns:rdf="http://www.w3.org/1999/02/22-rdf-syntax-ns#"
   xmlns:svg="http://www.w3.org/2000/svg"
   xmlns="http://www.w3.org/2000/svg"
   xmlns:sodipodi="http://sodipodi.sourceforge.net/DTD/sodipodi-0.dtd"
   xmlns:inkscape="http://www.inkscape.org/namespaces/inkscape"
   width="100px"
   height="100px"
   viewBox="0 0 100 100"
   version="1.1"
   id="svg3737"
   sodipodi:docname="icon.svg"
   inkscape:version="0.92.4 (5da689c313, 2019-01-14)">
  <metadata
     id="metadata3741">
    <rdf:RDF>
      <cc:Work
         rdf:about="">
        <dc:format>image/svg+xml</dc:format>
        <dc:type
           rdf:resource="http://purl.org/dc/dcmitype/StillImage" />
        <dc:title>search</dc:title>
      </cc:Work>
    </rdf:RDF>
  </metadata>
  <sodipodi:namedview
     pagecolor="#ffffff"
     bordercolor="#666666"
     borderopacity="1"
     objecttolerance="10"
     gridtolerance="10"
     guidetolerance="10"
     inkscape:pageopacity="0"
     inkscape:pageshadow="2"
     inkscape:window-width="1920"
     inkscape:window-height="1057"
     id="namedview3739"
     showgrid="false"
     inkscape:zoom="8.88"
     inkscape:cx="50"
     inkscape:cy="50"
     inkscape:window-x="-8"
     inkscape:window-y="-8"
     inkscape:window-maximized="1"
     inkscape:current-layer="svg3737" />
  <!-- Generator: Sketch 41.2 (35397) - http://www.bohemiancoding.com/sketch -->
  <title
     id="title3728">search</title>
  <desc
     id="desc3730">Created with Sketch.</desc>
  <defs
     id="defs3732" />
  <g
     id="Page-1"
     stroke="none"
     stroke-width="1"
     fill="none"
     fill-rule="evenodd">
    <g
       id="search"
       fill="#000000">
      <path
         d="M69.2307692,42.3076923 C69.2307692,27.4639423 57.1514423,15.3846154 42.3076923,15.3846154 C27.4639423,15.3846154 15.3846154,27.4639423 15.3846154,42.3076923 C15.3846154,57.1514423 27.4639423,69.2307692 42.3076923,69.2307692 C57.1514423,69.2307692 69.2307692,57.1514423 69.2307692,42.3076923 Z M100,92.3076923 C100,96.5144231 96.5144231,100 92.3076923,100 C90.2644231,100 88.28125,99.1586538 86.8990385,97.7163462 L66.2860577,77.1634615 C59.2548077,82.03125 50.8413462,84.6153846 42.3076923,84.6153846 C18.9302885,84.6153846 0,65.6850962 0,42.3076923 C0,18.9302885 18.9302885,0 42.3076923,0 C65.6850962,0 84.6153846,18.9302885 84.6153846,42.3076923 C84.6153846,50.8413462 82.03125,59.2548077 77.1634615,66.2860577 L97.7764423,86.8990385 C99.1586538,88.28125 100,90.2644231 100,92.3076923 Z"
         id="Shape" />
    </g>
  </g>
  <path
     style="fill:#bc4f3e;fill-opacity:1;stroke-width:0.11261261"
     d="M 90.822072,99.788054 C 89.83182,99.569691 88.991052,99.226389 88.271083,98.746434 87.904556,98.502095 83.108925,93.831455 76.966495,87.736486 71.099089,81.914414 66.259387,77.161985 66.211604,77.175534 c -0.04778,0.01355 -0.585719,0.346384 -1.195413,0.739634 -5.253712,3.38863 -10.998268,5.454759 -17.631595,6.341508 -1.773073,0.237026 -6.537522,0.332147 -8.423552,0.168175 C 34.616184,84.047108 30.665389,83.136686 26.858108,81.635849 14.166885,76.632945 4.5737024,65.708086 1.3133023,52.545045 0.45522896,49.080791 0.10270132,46.119422 0.10009128,42.353604 0.09766305,38.850083 0.38130181,36.164412 1.0872293,33.006757 3.8328961,20.725225 12.095315,10.19229 23.445141,4.504883 27.08142,2.6827407 31.034768,1.3826902 35.039982,0.69194252 c 2.791338,-0.4813999 3.924546,-0.56827223 7.358667,-0.56411955 3.585353,0.004336 5.040065,0.13651961 8.133286,0.73904031 C 65.430551,3.7689278 77.740689,14.689882 82.473875,29.204195 86.412026,41.280532 84.686336,54.537729 77.78157,65.251684 l -0.677483,1.051234 10.5885,10.604171 c 5.823675,5.832295 10.75064,10.846323 10.948813,11.142284 0.844001,1.260479 1.264623,2.700324 1.261306,4.317616 -0.0025,1.205696 -0.220418,2.153406 -0.747949,3.25238 -1.471156,3.064765 -5.101839,4.881131 -8.332685,4.168685 z M 45.495495,69.088934 c 6.061136,-0.708103 12.180309,-3.777721 16.347543,-8.200568 3.247271,-3.446455 5.49136,-7.532332 6.623467,-12.059537 0.613507,-2.45337 0.733372,-3.520903 0.733372,-6.531532 0,-3.070661 -0.119528,-4.085201 -0.791309,-6.716586 -2.245699,-8.796443 -8.982923,-16.021062 -17.563973,-18.834615 -3.064298,-1.004721 -5.335152,-1.364416 -8.59248,-1.361015 -3.097306,0.0032 -5.535007,0.381693 -8.299412,1.288503 -6.901668,2.263962 -12.628325,7.238786 -15.820041,13.743083 -1.237535,2.521932 -1.962941,4.737745 -2.414777,7.376126 -1.294924,7.561406 0.775353,15.458419 5.624437,21.454241 0.963435,1.191275 2.93321,3.164867 4.051822,4.059678 5.669917,4.535529 12.920386,6.621152 20.101351,5.782222 z"
     id="path3743"
     inkscape:connector-curvature="0" />
</svg>
